<?xml version="1.0" encoding="UTF-8"?>
<svg version="1.1" xmlns="http://www.w3.org/2000/svg" width="225" height="225">
<path d="M0 0 C74.25 0 148.5 0 225 0 C225 74.25 225 148.5 225 225 C150.75 225 76.5 225 0 225 C0 150.75 0 76.5 0 0 Z " fill="#FDFDFD" transform="translate(0,0)"/>
<path d="M0 0 C7.40358259 6.00108243 12.22214643 13.87670655 17 22 C17.58136719 22.88429687 18.16273438 23.76859375 18.76171875 24.6796875 C22.68659298 35.20379822 19.34070606 49.13271685 18.34594727 60.11914062 C18.06195091 63.25606503 17.78519463 66.39356282 17.50976562 69.53125 C17.33114607 71.54691199 17.1521236 73.56253832 16.97265625 75.578125 C16.8491555 76.96901337 16.8491555 76.96901337 16.72315979 78.38800049 C16.64315231 79.26961853 16.56314484 80.15123657 16.48071289 81.05957031 C16.41187393 81.82279602 16.34303497 82.58602173 16.27210999 83.37237549 C15.90460016 86.92122656 15.44253479 90.45972171 15 94 C8.73 94 2.46 94 -4 94 C-5.43103866 88.99136469 -6.44618321 84.65362592 -7.125 79.5625 C-7.37636719 77.70818359 -7.37636719 77.70818359 -7.6328125 75.81640625 C-7.75398437 74.88699219 -7.87515625 73.95757812 -8 73 C-9.09570312 73.2165625 -10.19140625 73.433125 -11.3203125 73.65625 C-32.58668691 77.51911439 -54.86991506 77.81010064 -76 73 C-76.268125 74.258125 -76.53625 75.51625 -76.8125 76.8125 C-78.01897349 82.26332985 -79.50247346 87.62251832 -81 93 C-85.29 93 -89.58 93 -94 93 C-94.9075 91.185 -95.815 89.37 -96.75 87.5 C-97.30300781 86.40300781 -97.85601562 85.30601562 -98.42578125 84.17578125 C-99.32854053 82.35458201 -100.21310041 80.52351706 -101.04296875 78.66796875 C-104.45969325 71.10343023 -110.52175535 66.3414381 -116.69921875 61.015625 C-120.04099426 58.0880254 -123.31475645 55.08547161 -126.55053711 52.04125977 C-128.79900468 49.93940795 -131.01682528 47.98831004 -133.546875 46.23046875 C-135.88067286 44.59598266 -137.43325648 43.38805637 -139 41 C-139.86667121 35.95494044 -140.7146054 29.79164994 -137.91796875 25.23828125 C-135.02983125 23.3736385 -131.88558742 22.43518939 -128.625 21.4375 C-123.54154873 19.89208825 -123.54154873 19.89208825 -118.6484375 17.84765625 C-116 17 -116 17 -106 17 C-106 9.41 -106 1.82 -106 -6 C-99.07423576 -4.61484715 -94.5483653 -0.61300657 -90.625 5.25 C-90.08875 6.1575 -89.5525 7.065 -89 8 C-88.34 8.99 -87.68 9.98 -87 11 C-86.45730469 10.7834375 -85.91460937 10.566875 -85.35546875 10.34375 C-84.28232422 9.92609375 -84.28232422 9.92609375 -83.1875 9.5 C-82.47980469 9.2215625 -81.77210937 8.943125 -81.04296875 8.65625 C-79 8 -79 8 -76 8 C-76.495 6.8553125 -76.495 6.8553125 -77 5.6875 C-78 3 -78 3 -78 0 C-76.39850114 -0.67305018 -74.79368971 -1.33822227 -73.1875 -2 C-72.29417969 -2.37125 -71.40085937 -2.7425 -70.48046875 -3.125 C-68 -4 -68 -4 -65 -4 C-65 -0.7 -65 2.6 -65 6 C-49.82 6 -34.64 6 -19 6 C-19 2.7 -19 -0.6 -19 -4 C-33.85 -4 -48.7 -4 -64 -4 C-61.32571041 -6.67428959 -58.88408823 -7.05430885 -55.25 -8.0625 C-53.43242187 -8.57490234 -53.43242187 -8.57490234 -51.578125 -9.09765625 C-33.21601362 -13.72827604 -15.31080074 -11.65736006 0 0 Z " fill="#FCFCFC" transform="translate(160,104)"/>
<path d="M0 0 C9.40866322 7.67996305 16.37616756 17.04144534 21.47265625 28.0625 C21.76906006 28.69978027 22.06546387 29.33706055 22.37084961 29.99365234 C23.17353276 31.76727471 23.93571198 33.55906603 24.6953125 35.3515625 C26.43258647 38.43660183 26.43258647 38.43660183 30.140625 39.5078125 C34.48736331 40.29711287 34.48736331 40.29711287 38.59375 39.1171875 C40.49162375 37.22977035 41.98564515 35.27664258 43.59375 33.1171875 C46.96095387 34.51051324 48.5797024 36.0961161 50.59375 39.1171875 C48.11875 41.5921875 48.11875 41.5921875 45.59375 44.1171875 C46.69061918 46.39530041 47.78444512 48.37851044 49.28125 50.4296875 C51.09728773 54.14824094 50.720827 56.17241801 49.59375 60.1171875 C46.55957057 63.79014154 44.33598337 65.80393612 39.5078125 66.35546875 C35.6299066 66.4812029 33.09191147 66.35101839 29.53125 64.6796875 C27.06455342 61.41728235 27.1064717 59.32721859 27.22265625 55.3359375 C27.6225838 52.9447917 28.40512088 51.2175763 29.59375 49.1171875 C28.27375 48.4571875 26.95375 47.7971875 25.59375 47.1171875 C25.5512915 48.33946045 25.50883301 49.5617334 25.46508789 50.82104492 C24.90947582 65.09753812 23.57808387 79.23046298 22.03125 93.4296875 C21.7943629 95.64642471 21.55803201 97.86322144 21.32226562 100.08007812 C20.75348418 105.42662368 20.17342532 110.77176819 19.59375 116.1171875 C6.72375 116.1171875 -6.14625 116.1171875 -19.40625 116.1171875 C-22.40625 101.1171875 -22.40625 101.1171875 -22.40625 97.1171875 C-24.00726563 97.33375 -24.00726563 97.33375 -25.640625 97.5546875 C-41.62393482 99.59503279 -57.53210596 100.36153811 -73.40625 97.1171875 C-73.58800781 98.06078125 -73.58800781 98.06078125 -73.7734375 99.0234375 C-73.94101563 99.879375 -74.10859375 100.7353125 -74.28125 101.6171875 C-74.44367188 102.4525 -74.60609375 103.2878125 -74.7734375 104.1484375 C-75.55732195 107.8259201 -76.49429176 111.46935454 -77.40625 115.1171875 C-87.30625 115.1171875 -97.20625 115.1171875 -107.40625 115.1171875 C-108.458125 112.8484375 -109.51 110.5796875 -110.59375 108.2421875 C-111.24629062 106.85624993 -111.89972637 105.47073284 -112.5546875 104.0859375 C-113.62819441 101.8072977 -114.65293943 99.53267495 -115.6328125 97.2109375 C-118.75799158 90.10621383 -123.49451237 86.00757075 -129.40625 81.1171875 C-131.03859583 79.66708123 -132.66364135 78.20871515 -134.28125 76.7421875 C-135.50521484 75.64197266 -135.50521484 75.64197266 -136.75390625 74.51953125 C-138.68610742 72.76945213 -140.61040543 71.01273001 -142.52734375 69.24609375 C-143.0579541 68.75737793 -143.58856445 68.26866211 -144.13525391 67.76513672 C-145.63977585 66.3775249 -147.14221201 64.98765256 -148.64453125 63.59765625 C-151.2752982 61.05522246 -151.2752982 61.05522246 -154.26953125 59.5 C-156.8498486 56.62249802 -156.72169843 55.71131991 -156.7109375 51.94140625 C-156.59402794 49.89416046 -156.44974555 47.84833434 -156.28125 45.8046875 C-156.219375 44.78439453 -156.1575 43.76410156 -156.09375 42.71289062 C-155.75500299 37.47247437 -155.23983123 32.3014778 -154.40625 27.1171875 C-150.02177018 25.24721879 -145.67220557 24.20283941 -141.02734375 23.19140625 C-135.67122012 21.60248068 -130.56333007 19.26597086 -125.40625 17.1171875 C-125.07625 7.8771875 -124.74625 -1.3628125 -124.40625 -10.8828125 C-111.5343182 -9.8926639 -102.76246762 -8.58667011 -93.22265625 0.078125 C-91.42107906 1.33199099 -91.42107906 1.33199099 -89.109375 0.95703125 C-85.83500467 -0.06029479 -82.74638026 -1.34613704 -79.59375 -2.6953125 C-71.69858473 -5.95876501 -63.74658621 -8.08882084 -55.40625 -9.8828125 C-54.35566406 -10.1096875 -53.30507812 -10.3365625 -52.22265625 -10.5703125 C-33.32954831 -14.18333713 -15.40380374 -11.81246748 0 0 Z M-69.40625 6.1171875 C-69.40625 6.4471875 -69.40625 6.7771875 -69.40625 7.1171875 C-54.55625 7.1171875 -39.70625 7.1171875 -24.40625 7.1171875 C-24.40625 10.4171875 -24.40625 13.7171875 -24.40625 17.1171875 C-39.58625 17.1171875 -54.76625 17.1171875 -70.40625 17.1171875 C-70.40625 13.8171875 -70.40625 10.5171875 -70.40625 7.1171875 C-75.01478797 7.83727156 -79.07862409 9.43014689 -83.40625 11.1171875 C-82.88356534 13.87994927 -82.29755413 16.4432751 -81.40625 19.1171875 C-82.32857422 19.31634766 -82.32857422 19.31634766 -83.26953125 19.51953125 C-84.48189453 19.78443359 -84.48189453 19.78443359 -85.71875 20.0546875 C-86.51925781 20.22871094 -87.31976563 20.40273437 -88.14453125 20.58203125 C-90.551651 21.11604909 -90.551651 21.11604909 -93.40625 22.1171875 C-93.921875 20.9415625 -94.4375 19.7659375 -94.96875 18.5546875 C-97.88457923 12.71265243 -102.26246493 7.62833775 -108.40625 5.1171875 C-109.39625 5.1171875 -110.38625 5.1171875 -111.40625 5.1171875 C-111.40625 12.7071875 -111.40625 20.2971875 -111.40625 28.1171875 C-114.70625 28.1171875 -118.00625 28.1171875 -121.40625 28.1171875 C-124.32614435 28.9674864 -126.89141311 29.81740502 -129.65625 30.9921875 C-130.99444306 31.53211482 -132.33297965 32.07119157 -133.671875 32.609375 C-134.30029297 32.86944336 -134.92871094 33.12951172 -135.57617188 33.39746094 C-137.29739016 34.07437549 -139.06291765 34.63536893 -140.828125 35.1875 C-143.55255584 35.83506002 -143.55255584 35.83506002 -144.40625 38.1171875 C-145.55145649 42.85386997 -146.1032069 47.4738289 -144.40625 52.1171875 C-140.65685963 57.33923609 -135.51122864 61.36246731 -130.54296875 65.37768555 C-128.39882887 67.12322904 -126.32117748 68.92654641 -124.25 70.7578125 C-121.966753 72.77361427 -119.67864115 74.68926996 -117.28125 76.57421875 C-108.20068302 84.01386806 -104.62084127 92.33245258 -100.40625 103.1171875 C-99.29498341 104.45620542 -99.29498341 104.45620542 -96.46484375 104.21484375 C-95.26988281 104.20324219 -94.07492188 104.19164062 -92.84375 104.1796875 C-91.64621094 104.17066406 -90.44867188 104.16164063 -89.21484375 104.15234375 C-87.82458984 104.13494141 -87.82458984 104.13494141 -86.40625 104.1171875 C-85.56794027 101.34777144 -84.73542966 98.57683681 -83.90625 95.8046875 C-83.66777344 95.01900391 -83.42929688 94.23332031 -83.18359375 93.42382812 C-82.95800781 92.66650391 -82.73242188 91.90917969 -82.5 91.12890625 C-82.29052734 90.43240967 -82.08105469 89.73591309 -81.86523438 89.01831055 C-81.28890736 86.95710917 -81.28890736 86.95710917 -81.40625 84.1171875 C-80.45492187 84.33375 -79.50359375 84.5503125 -78.5234375 84.7734375 C-57.15656863 89.18929199 -34.7327451 88.33230653 -13.40625 84.1171875 C-13.28507813 85.04660156 -13.16390625 85.97601563 -13.0390625 86.93359375 C-12.78769531 88.78791016 -12.78769531 88.78791016 -12.53125 90.6796875 C-12.36882812 91.89785156 -12.20640625 93.11601562 -12.0390625 94.37109375 C-11.37809863 98.7047573 -11.37809863 98.7047573 -9.40625 105.1171875 C-3.13625 105.1171875 3.13375 105.1171875 9.59375 105.1171875 C11.16636491 91.1313989 12.67648502 77.14873521 13.78125 63.1171875 C13.86487793 62.08803223 13.94850586 61.05887695 14.03466797 59.99853516 C14.258193 57.03887142 14.43871951 54.08119357 14.59375 51.1171875 C14.65425537 50.08335937 14.71476074 49.04953125 14.77709961 47.984375 C15.00316375 41.31835436 14.33670323 36.7731865 10.78125 31.1171875 C10.37890137 30.4456665 9.97655273 29.77414551 9.56201172 29.08227539 C1.14927381 15.54307558 -10.07858073 5.06682253 -25.76953125 0.77734375 C-40.41498293 -1.88117541 -55.7513453 0.25376614 -69.40625 6.1171875 Z " fill="#030303" transform="translate(165.40625,92.8828125)"/>
<path d="M0 0 C6.80547734 4.90193432 11.38685116 12.78458218 13 21 C13.52062419 31.23894244 11.59193442 38.97174959 5 47 C-1.71312007 54.06725255 -9.10946624 56.50080222 -18.6875 57.3125 C-28.03918518 57.0987472 -35.29801682 52.79428858 -41.8984375 46.4453125 C-47.84855386 39.5219429 -49.49338769 31.22150183 -49.40625 22.30078125 C-48.40671773 14.17958159 -43.87037138 6.85088997 -37.859375 1.3984375 C-26.2348876 -7.34434924 -12.42441176 -7.00317344 0 0 Z " fill="#010101" transform="translate(138,21)"/>
<path d="M0 0 C3.0625 2 3.0625 2 5 5 C5.37555752 7.91779305 5.03821185 10.25246699 4 13 C1.40959979 15.96045738 -0.12870035 16.85478339 -4 17.5 C-7.83460553 16.86089908 -9.40320527 15.89357127 -12 13 C-13.1659741 8.99196403 -13.43240501 6.94717289 -11.6875 3.125 C-8.59855883 -0.76477776 -4.68452348 -0.76883401 0 0 Z " fill="#060606" transform="translate(59,126)"/>
<path d="M0 0 C1.65 0.33 3.3 0.66 5 1 C4.690625 1.680625 4.38125 2.36125 4.0625 3.0625 C2.85539125 6.05539263 2.85539125 6.05539263 2.5625 9.625 C2 13 2 13 -1 16 C-0.67 10.72 -0.34 5.44 0 0 Z " fill="#C9C9C9" transform="translate(191,140)"/>
<path d="M0 0 C0.99 0 1.98 0 3 0 C3.33 1.65 3.66 3.3 4 5 C2.02 5.33 0.04 5.66 -2 6 C-1.49396008 3.83125748 -1.00016187 2.00032373 0 0 Z " fill="#E7E7E7" transform="translate(203,145)"/>
<path d="M0 0 C2.475 0.495 2.475 0.495 5 1 C4.34 2.65 3.68 4.3 3 6 C2.01 6 1.02 6 0 6 C0 4.02 0 2.04 0 0 Z " fill="#E7E7E7" transform="translate(191,140)"/>
</svg>
